<svg aria-hidden="true" style="position:absolute;width:0;height:0;overflow:hidden" xmlns="http://www.w3.org/2000/svg"><defs><symbol id="icon-arrow-left" viewBox="0 0 32 32"><path fill="#fff" style="fill:var(--color1, #fff)" d="M22.708 3.292a.991.991 0 0 1 .293.708 1.002 1.002 0 0 1-.293.708L11.414 16l11.294 11.292A1 1 0 0 1 22 29.001a1 1 0 0 1-.708-.293l-12-12A.991.991 0 0 1 8.999 16a1.002 1.002 0 0 1 .293-.708l12-12A.991.991 0 0 1 22 2.999a1.006 1.006 0 0 1 .708.293z"/></symbol><symbol id="icon-arrow-right" viewBox="0 0 32 32"><path fill="#fff" style="fill:var(--color1, #fff)" d="M9.292 3.292A.991.991 0 0 1 10 2.999a1.002 1.002 0 0 1 .708.293l12 12a.991.991 0 0 1 .293.708 1.006 1.006 0 0 1-.293.708l-12 12A1 1 0 0 1 8.999 28a1 1 0 0 1 .293-.708L20.586 16 9.292 4.708A.991.991 0 0 1 8.999 4a1.002 1.002 0 0 1 .293-.708z"/></symbol><symbol id="icon-close" viewBox="0 0 32 32"><path fill="#fff" style="fill:var(--color1, #fff)" d="M9.292 9.292A.991.991 0 0 1 10 8.999a1.002 1.002 0 0 1 .708.293L16 14.586l5.292-5.294A.991.991 0 0 1 22 8.999a1.006 1.006 0 0 1 .925.618 1.006 1.006 0 0 1-.217 1.091L17.414 16l5.294 5.292a.991.991 0 0 1 .293.708 1.006 1.006 0 0 1-.618.925 1.006 1.006 0 0 1-1.091-.217L16 17.414l-5.292 5.294a.991.991 0 0 1-.708.293 1.006 1.006 0 0 1-.925-.618 1.01 1.01 0 0 1 0-.766.991.991 0 0 1 .217-.325L14.586 16l-5.294-5.292A.991.991 0 0 1 8.999 10a1.006 1.006 0 0 1 .293-.708z"/></symbol></defs></svg>